<svg version="1.1" xmlns="http://www.w3.org/2000/svg" xmlns:xlink="http://www.w3.org/1999/xlink" width="69.18541" height="249.01905" viewBox="0,0,69.18541,249.01905"><g transform="translate(-198.53309,-112.78684)"><g data-paper-data="{&quot;isPaintingLayer&quot;:true}" fill-rule="nonzero" stroke-linejoin="miter" stroke-miterlimit="10" stroke-dasharray="" stroke-dashoffset="0" style="mix-blend-mode: normal"><path d="M264.96851,162.71122c0,26.05369 -14.25647,47.17438 -31.84271,47.17438c-17.58624,0 -31.8427,-21.12069 -31.8427,-47.17438c0,-26.05369 14.25646,-47.17438 31.8427,-47.17438c17.58624,0 31.84271,21.1207 31.84271,47.17438z" fill="#66ffde" stroke="#000000" stroke-width="5.5" stroke-linecap="butt"/><path d="M240.03228,187.1955c0.92987,0.61991 0.30996,1.54979 0.30996,1.54979l-0.58156,0.74138c-1.1696,0.82985 -2.01974,1.9306 -3.35665,2.52091c-4.20406,1.85627 -8.17834,0.6112 -11.08816,-2.69439c0,0 -0.73592,-0.84106 0.10513,-1.57698c0.84105,-0.73592 1.57698,0.10513 1.57698,0.10513c2.26719,2.60895 5.16112,3.56432 8.49374,2.12577c1.14193,-0.49292 1.96226,-1.57538 2.96981,-2.29925l0.02096,-0.1624c0,0 0.61991,-0.92987 1.54979,-0.30996z" fill="#000000" stroke="none" stroke-width="0.5" stroke-linecap="butt"/><path d="M223.84281,187.08849c-2.47487,-0.35356 -2.12132,-2.82843 -2.12132,-2.82843l0.33114,-2.31525c0.80704,-6.35883 0.65462,-12.82591 0.65462,-19.23359c0,0 0,-2.5 2.5,-2.5c2.5,0 2.5,2.5 2.5,2.5c0,6.62133 0.11726,13.2801 -0.69323,19.85376l-0.34278,2.40219c0,0 -0.35355,2.47487 -2.82842,2.12132z" fill="#000000" stroke="none" stroke-width="0.5" stroke-linecap="butt"/><path d="M242.05524,185.42881c-2.5,0 -2.5,-2.5 -2.5,-2.5v-2.69568c0.01129,-5.93601 -0.33696,-11.89656 -0.33696,-17.85887c0,0 0,-2.5 2.5,-2.5c2.5,0 2.5,2.5 2.5,2.5c0,5.96607 0.32689,11.91716 0.33696,17.85887v2.69568c0,0 0,2.5 -2.5,2.5z" fill="#000000" stroke="none" stroke-width="0.5" stroke-linecap="butt"/><path d="M232.04024,211.67152l-2.89479,147.63437" fill="none" stroke="#000000" stroke-width="5" stroke-linecap="round"/></g></g></svg>